<?xml version="1.0" encoding="UTF-8" standalone="no"?>
<!-- Created with Inkscape (http://www.inkscape.org/) -->

<svg
   width="673.24561mm"
   height="101.07052mm"
   viewBox="0 0 673.24557 101.07052"
   version="1.1"
   id="svg5"
   inkscape:version="1.3.2 (091e20ef0f, 2023-11-25)"
   sodipodi:docname="banner.svg"
   xmlns:inkscape="http://www.inkscape.org/namespaces/inkscape"
   xmlns:sodipodi="http://sodipodi.sourceforge.net/DTD/sodipodi-0.dtd"
   xmlns:xlink="http://www.w3.org/1999/xlink"
   xmlns="http://www.w3.org/2000/svg"
   xmlns:svg="http://www.w3.org/2000/svg">
  <sodipodi:namedview
     id="namedview7"
     pagecolor="#505050"
     bordercolor="#eeeeee"
     borderopacity="1"
     inkscape:showpageshadow="0"
     inkscape:pageopacity="0"
     inkscape:pagecheckerboard="0"
     inkscape:deskcolor="#505050"
     inkscape:document-units="mm"
     showgrid="false"
     inkscape:zoom="0.32204335"
     inkscape:cx="1007.6283"
     inkscape:cy="315.17496"
     inkscape:window-width="1848"
     inkscape:window-height="1000"
     inkscape:window-x="0"
     inkscape:window-y="0"
     inkscape:window-maximized="1"
     inkscape:current-layer="layer1" />
  <defs
     id="defs2">
    <linearGradient
       inkscape:collect="always"
       id="linearGradient1080">
      <stop
         style="stop-color:#00b8ff;stop-opacity:1;"
         offset="0"
         id="stop1076" />
      <stop
         style="stop-color:#0cf58d;stop-opacity:1;"
         offset="0.99999994"
         id="stop1078" />
    </linearGradient>
    <linearGradient
       inkscape:collect="always"
       xlink:href="#linearGradient1080"
       id="linearGradient1082"
       x1="101.951"
       y1="98.401543"
       x2="102.34019"
       y2="-100.80501"
       gradientUnits="userSpaceOnUse"
       gradientTransform="matrix(0.4411798,0,0,0.4411798,6.4215257,5.4681299)" />
  </defs>
  <g
     inkscape:label="Layer 1"
     inkscape:groupmode="layer"
     id="layer1"
     transform="translate(65.867444,6.5687844)">
    <path
       id="path1049"
       style="fill:none;stroke:url(#linearGradient1082);stroke-width:7.05887;stroke-linecap:round;stroke-linejoin:round;stroke-dasharray:0, 14.1177;stroke-dashoffset:0.705887"
       transform="rotate(45)"
       d="M 79.885492,5.341362 A 28.235506,28.235506 0 0 1 51.649986,33.576868 28.235506,28.235506 0 0 1 23.41448,5.341362 28.235506,28.235506 0 0 1 51.649986,-22.894144 28.235506,28.235506 0 0 1 79.885492,5.341362 Z" />
    <path
       id="path788"
       style="fill:none;stroke:#00b8ff;stroke-width:7.05887;stroke-linecap:round;stroke-linejoin:round;stroke-dasharray:none;stroke-opacity:1"
       d="M 52.710661,60.264487 C 45.577671,67.397482 35.181106,70.183232 25.437256,67.572379 15.693407,64.96152 8.0825934,57.350706 5.4717369,47.606858 2.8608808,37.863008 5.646632,27.466444 12.779626,20.333452"
       sodipodi:nodetypes="cssc" />
    <path
       id="path1051"
       style="fill:#00b8ff;stroke:#00b8ff;stroke-width:7.05887;stroke-linecap:round;stroke-linejoin:round;stroke-dashoffset:10.4"
       d="m 36.850896,40.172203 a 4.411798,4.411798 0 0 1 -4.411798,4.411798 4.411798,4.411798 0 0 1 -4.411798,-4.411798 4.411798,4.411798 0 0 1 4.411798,-4.411798 4.411798,4.411798 0 0 1 4.411798,4.411798 z" />
    <path
       d="m 132.29362,11.846158 q 1.79916,0 2.96332,1.164163 1.16417,1.05833 1.16417,2.857491 v 49.74151 q 0,1.799161 -1.16417,2.963324 -1.16416,1.164163 -2.96332,1.164163 -1.79916,0 -2.96333,-1.164163 -1.05833,-1.164163 -1.05833,-2.963324 V 62.011 q -3.49248,3.915821 -8.46664,6.138314 -4.97415,2.222493 -10.79496,2.222493 -7.51414,0 -13.546626,-3.17499 -5.926648,-3.17499 -9.313304,-9.207471 -3.386656,-6.138314 -3.386656,-14.604954 v -27.51658 q 0,-1.693328 1.164163,-2.857491 1.164163,-1.164163 2.857491,-1.164163 1.799161,0 2.963324,1.164163 1.164163,1.164163 1.164163,2.857491 v 27.51658 q 0,9.419137 5.185817,14.393288 5.291648,4.868318 13.758288,4.868318 5.18582,0 9.31331,-2.010827 4.23332,-2.010827 6.66748,-5.503316 2.43415,-3.598322 2.43415,-7.937475 V 15.867812 q 0,-1.799161 1.05833,-2.857491 1.16417,-1.164163 2.96333,-1.164163 z M 182.8818,11.21116 q 7.51414,0 13.44079,3.17499 6.03248,3.17499 9.41914,9.313304 3.38665,6.032481 3.38665,14.499121 v 27.51658 q 0,1.693328 -1.16416,2.857491 -1.16416,1.164163 -2.85749,1.164163 -1.79916,0 -2.96332,-1.164163 -1.16417,-1.164163 -1.16417,-2.857491 v -27.51658 q 0,-9.419137 -5.29165,-14.287455 -5.18581,-4.974151 -13.65245,-4.974151 -5.18582,0 -9.41914,2.010827 -4.12749,2.010827 -6.56165,5.609149 -2.43416,3.492489 -2.43416,7.831642 v 31.326568 q 0,1.799161 -1.16416,2.963324 -1.05833,1.05833 -2.85749,1.05833 -1.79916,0 -2.96332,-1.05833 -1.16417,-1.164163 -1.16417,-2.963324 v -49.74151 q 0,-1.799161 1.16417,-2.963324 1.16416,-1.164163 2.96332,-1.164163 1.79916,0 2.85749,1.164163 1.16416,1.164163 1.16416,2.963324 v 3.598322 q 3.49249,-3.915821 8.46664,-6.138314 4.97416,-2.222493 10.79497,-2.222493 z m 69.74395,50.376508 q 1.69333,0 2.75166,1.164163 1.05833,1.164163 1.05833,2.963324 0,1.693328 -1.26999,2.857491 -1.27,1.164163 -3.17499,1.164163 h -2.2225 q -5.60915,0 -10.05413,-2.645825 -4.44499,-2.751658 -6.98498,-7.302477 -2.43416,-4.656652 -2.43416,-10.477467 V 21.053629 h -6.87914 q -1.69333,0 -2.75166,-0.952497 -0.9525,-1.05833 -0.9525,-2.539992 0,-1.587495 0.9525,-2.539992 1.05833,-1.05833 2.75166,-1.05833 h 6.87914 V -2.4412973 q 0,-1.7991611 1.05833,-2.9633241 1.16416,-1.164163 2.96333,-1.164163 1.79916,0 2.96332,1.164163 1.16416,1.164163 1.16416,2.9633241 V 13.962818 h 11.95913 q 1.69333,0 2.64583,1.05833 1.05833,0.952497 1.05833,2.539992 0,1.481662 -1.05833,2.539992 -0.9525,0.952497 -2.64583,0.952497 H 238.44413 V 49.31104 q 0,5.397483 3.17499,8.889972 3.17499,3.386656 8.14914,3.386656 z M 294.324,11.316993 q 7.83164,0 13.86412,3.704155 6.03248,3.598322 9.3133,10.054135 3.38666,6.455813 3.38666,14.710787 0,1.693328 -1.05833,2.751658 -1.05833,0.952497 -2.75166,0.952497 h -42.75653 q 0.84666,8.678306 6.77331,14.075789 5.92665,5.397483 14.81662,5.397483 3.80999,0 7.61998,-1.269996 3.91582,-1.375829 6.24415,-3.386656 1.37582,-1.05833 2.85749,-1.05833 1.16416,0 2.32832,0.846664 1.37583,1.269996 1.37583,2.857491 0,1.375829 -1.16416,2.434159 -3.49249,2.963324 -8.88997,4.974151 -5.39749,1.904994 -10.37164,1.904994 -8.46664,0 -15.13412,-3.704155 -6.66748,-3.809988 -10.47746,-10.477467 -3.70416,-6.773312 -3.70416,-15.239952 0,-8.572473 3.49249,-15.239952 3.59832,-6.773312 9.84247,-10.477467 6.34998,-3.809988 14.39329,-3.809988 z m 0,7.302477 q -8.04331,0 -13.33496,4.974151 -5.29165,4.974151 -6.45581,13.123292 H 313.2681 Q 312.42144,28.567772 307.34146,23.593621 302.26147,18.61947 294.324,18.61947 Z m 66.46317,-7.40831 q 4.44498,0 6.98497,1.164163 2.64583,1.164163 2.64583,3.280823 0,0.634998 -0.10583,0.952497 -0.42334,1.481662 -1.37583,2.010827 -0.84667,0.529165 -2.43416,0.529165 -0.9525,0 -3.28083,-0.211666 -0.84666,-0.105833 -2.53999,-0.105833 -7.93747,0 -13.01746,4.23332 -4.97415,4.23332 -4.97415,11.006632 v 31.644067 q 0,1.904994 -1.05833,2.963324 -1.05833,1.05833 -2.96332,1.05833 -1.905,0 -2.96333,-1.05833 -1.05833,-1.05833 -1.05833,-2.963324 V 15.867812 q 0,-1.904994 1.05833,-2.963324 1.05833,-1.05833 2.96333,-1.05833 1.90499,0 2.96332,1.05833 1.05833,1.05833 1.05833,2.963324 v 4.656652 q 3.06916,-4.444986 7.83164,-6.879145 4.76249,-2.434159 10.26581,-2.434159 z m 51.75235,0.105833 q 8.25497,0 14.92245,3.915821 6.77331,3.809988 10.5833,10.5833 3.91582,6.773312 3.91582,15.028286 0,8.254974 -3.80999,15.028286 -3.70415,6.667479 -10.2658,10.5833 -6.45581,3.809988 -14.49912,3.809988 -6.87915,0 -12.59413,-2.857491 -5.71498,-2.963324 -9.41913,-8.043308 v 31.009069 q 0,1.799161 -1.16417,2.963324 -1.16416,1.164163 -2.96332,1.164163 -1.79916,0 -2.96333,-1.164163 -1.05833,-1.164163 -1.05833,-2.963324 V 66.667652 q -0.10583,-0.317499 -0.10583,-0.952497 V 40.8444 q 0,-8.254974 3.80999,-15.028286 3.91582,-6.773312 10.5833,-10.5833 6.77331,-3.915821 15.02829,-3.915821 z m 0,51.540671 q 6.03248,0 10.90079,-2.857491 4.97416,-2.857491 7.72581,-7.831642 2.85749,-5.079984 2.85749,-11.324131 0,-6.244147 -2.85749,-11.218298 -2.75165,-5.079984 -7.72581,-7.937475 -4.86831,-2.963324 -10.90079,-2.963324 -6.03249,0 -10.9008,2.963324 -4.86832,2.857491 -7.72581,7.937475 -2.75166,4.974151 -2.75166,11.218298 0,1.799161 0.10583,2.645825 0.10584,0.211666 0.10584,0.529165 1.05833,8.254974 6.87914,13.546624 5.92665,5.29165 14.28746,5.29165 z m 71.75484,-51.540671 q 8.25498,0 14.92246,3.915821 6.77331,3.809988 10.5833,10.5833 3.91582,6.773312 3.91582,15.028286 v 24.870755 q 0,1.693328 -1.16416,2.857491 -1.16417,1.164163 -2.96333,1.164163 -1.79916,0 -2.96332,-1.05833 -1.16417,-1.164163 -1.16417,-2.963324 v -6.34998 q -3.70415,5.079984 -9.41913,8.043308 -5.71498,2.857491 -12.59413,2.857491 -8.04331,0 -14.60495,-3.809988 -6.45582,-3.915821 -10.26581,-10.5833 -3.70415,-6.773312 -3.70415,-15.028286 0,-8.254974 3.80999,-15.028286 3.91582,-6.773312 10.5833,-10.5833 6.77331,-3.915821 15.02828,-3.915821 z m 0,51.540671 q 6.03249,0 10.9008,-2.857491 4.86832,-2.857491 7.61998,-7.831642 2.85749,-5.079984 2.85749,-11.324131 0,-6.244147 -2.85749,-11.218298 -2.75166,-5.079984 -7.61998,-7.937475 -4.86831,-2.963324 -10.9008,-2.963324 -6.03248,0 -11.00663,2.963324 -4.86832,2.857491 -7.72581,7.937475 -2.75166,4.974151 -2.75166,11.218298 0,6.244147 2.75166,11.324131 2.85749,4.974151 7.72581,7.831642 4.97415,2.857491 11.00663,2.857491 z M 555.73165,11.21116 q 4.44499,0 6.98498,1.164163 2.64583,1.164163 2.64583,3.280823 0,0.634998 -0.10584,0.952497 -0.42333,1.481662 -1.37582,2.010827 -0.84667,0.529165 -2.43416,0.529165 -0.9525,0 -3.28083,-0.211666 -0.84666,-0.105833 -2.53999,-0.105833 -7.93747,0 -13.01746,4.23332 -4.97415,4.23332 -4.97415,11.006632 v 31.644067 q 0,1.904994 -1.05833,2.963324 -1.05833,1.05833 -2.96332,1.05833 -1.905,0 -2.96333,-1.05833 -1.05833,-1.05833 -1.05833,-2.963324 V 15.867812 q 0,-1.904994 1.05833,-2.963324 1.05833,-1.05833 2.96333,-1.05833 1.90499,0 2.96332,1.05833 1.05833,1.05833 1.05833,2.963324 v 4.656652 q 3.06916,-4.444986 7.83164,-6.879145 4.76249,-2.434159 10.2658,-2.434159 z m 47.83653,50.376508 q 1.69333,0 2.75166,1.164163 1.05833,1.164163 1.05833,2.963324 0,1.693328 -1.26999,2.857491 -1.27,1.164163 -3.17499,1.164163 h -2.2225 q -5.60915,0 -10.05413,-2.645825 -4.44499,-2.751658 -6.98498,-7.302477 -2.43416,-4.656652 -2.43416,-10.477467 V 21.053629 h -6.87914 q -1.69333,0 -2.75166,-0.952497 -0.9525,-1.05833 -0.9525,-2.539992 0,-1.587495 0.9525,-2.539992 1.05833,-1.05833 2.75166,-1.05833 h 6.87914 V -2.4412973 q 0,-1.7991611 1.05833,-2.9633241 1.16416,-1.164163 2.96332,-1.164163 1.79917,0 2.96333,1.164163 1.16416,1.164163 1.16416,2.9633241 V 13.962818 h 11.95913 q 1.69333,0 2.64583,1.05833 1.05833,0.952497 1.05833,2.539992 0,1.481662 -1.05833,2.539992 -0.9525,0.952497 -2.64583,0.952497 H 589.38656 V 49.31104 q 0,5.397483 3.17499,8.889972 3.17499,3.386656 8.14914,3.386656 z"
       id="text1"
       style="font-size:105.833px;font-family:Comfortaa;-inkscape-font-specification:'Comfortaa, Normal';fill:#00b8ff;stroke-width:4"
       aria-label="unterpart" />
    <path
       d="m -36.975035,70.413984 q -8.254974,0 -14.81662,-3.809988 -6.561646,-3.915821 -10.371634,-10.5833 -3.704155,-6.773312 -3.704155,-15.028286 0,-8.46664 3.598322,-15.134119 3.598322,-6.773312 9.948302,-10.5833 6.34998,-3.809988 14.287455,-3.809988 13.229125,0 21.484099,10.159968 0.846664,0.952497 0.846664,2.222493 0,1.693328 -1.799161,2.963324 -0.952497,0.634998 -2.010827,0.634998 -1.587495,0 -3.069157,-1.587495 -3.17499,-3.492489 -6.984978,-5.185817 -3.809988,-1.799161 -8.46664,-1.799161 -5.820815,0 -10.371634,2.857491 -4.550819,2.751658 -7.090811,7.831642 -2.434159,5.079984 -2.434159,11.429964 0,6.244147 2.645825,11.324131 2.645825,4.974151 7.40831,7.831642 4.762485,2.857491 10.900799,2.857491 8.46664,0 13.652457,-4.550819 1.375829,-1.164163 2.857491,-1.164163 1.269996,0 2.328326,0.846664 1.481662,1.269996 1.481662,2.857491 0,1.375829 -1.05833,2.328326 -7.619976,7.090811 -19.261606,7.090811 z"
       id="text1-5"
       style="font-size:105.833px;font-family:Comfortaa;-inkscape-font-specification:'Comfortaa, Normal';fill:#00b8ff;stroke-width:4"
       aria-label="c" />
  </g>
</svg>
