<?xml version="1.0" encoding="UTF-8" standalone="no"?>
<!-- Created with Inkscape (http://www.inkscape.org/) -->

<svg
   width="147.9888mm"
   height="187.14639mm"
   viewBox="0 0 147.9888 187.14639"
   version="1.1"
   id="svg1"
   xml:space="preserve"
   inkscape:version="1.3.2 (091e20ef0f, 2023-11-25)"
   sodipodi:docname="guide.svg"
   inkscape:export-filename="guide.png"
   inkscape:export-xdpi="96"
   inkscape:export-ydpi="96"
   xmlns:inkscape="http://www.inkscape.org/namespaces/inkscape"
   xmlns:sodipodi="http://sodipodi.sourceforge.net/DTD/sodipodi-0.dtd"
   xmlns:xlink="http://www.w3.org/1999/xlink"
   xmlns="http://www.w3.org/2000/svg"
   xmlns:svg="http://www.w3.org/2000/svg"><sodipodi:namedview
     id="namedview1"
     pagecolor="#505050"
     bordercolor="#eeeeee"
     borderopacity="1"
     inkscape:showpageshadow="0"
     inkscape:pageopacity="0"
     inkscape:pagecheckerboard="0"
     inkscape:deskcolor="#505050"
     inkscape:document-units="mm"
     inkscape:zoom="0.99654638"
     inkscape:cx="283.98076"
     inkscape:cy="358.73895"
     inkscape:window-width="1848"
     inkscape:window-height="1000"
     inkscape:window-x="0"
     inkscape:window-y="0"
     inkscape:window-maximized="1"
     inkscape:current-layer="layer1" /><defs
     id="defs1"><marker
       style="overflow:visible"
       id="RoundedArrow"
       refX="0"
       refY="0"
       orient="auto-start-reverse"
       inkscape:stockid="Rounded arrow"
       markerWidth="1"
       markerHeight="1"
       viewBox="0 0 1 1"
       inkscape:isstock="true"
       inkscape:collect="always"
       preserveAspectRatio="xMidYMid"><path
         transform="scale(0.7)"
         d="m -0.21114562,-4.1055728 6.42229122,3.21114561 a 1,1 90 0 1 0,1.78885438 L -0.21114562,4.1055728 A 1.236068,1.236068 31.717474 0 1 -2,3 v -6 a 1.236068,1.236068 148.28253 0 1 1.78885438,-1.1055728 z"
         style="fill:context-stroke;fill-rule:evenodd;stroke:none"
         id="path8" /></marker><rect
       x="42.757042"
       y="202.79411"
       width="706.92975"
       height="351.80484"
       id="rect4" /><rect
       x="46.582752"
       y="215.09834"
       width="399.43417"
       height="83.142609"
       id="rect3" /><linearGradient
       inkscape:collect="always"
       id="linearGradient1080"><stop
         style="stop-color:#00b8ff;stop-opacity:1;"
         offset="0"
         id="stop1076" /><stop
         style="stop-color:#0cf58d;stop-opacity:1;"
         offset="0.99999994"
         id="stop1078" /></linearGradient><linearGradient
       inkscape:collect="always"
       xlink:href="#linearGradient1080"
       id="linearGradient1082"
       x1="101.951"
       y1="98.401543"
       x2="102.34019"
       y2="-100.80501"
       gradientUnits="userSpaceOnUse"
       gradientTransform="matrix(0.4411798,0,0,0.4411798,6.4215257,5.4681299)" /><rect
       x="42.757042"
       y="202.79411"
       width="706.92975"
       height="351.80484"
       id="rect4-8" /><rect
       x="42.757042"
       y="202.79411"
       width="496.35876"
       height="66.193443"
       id="rect4-9" /><rect
       x="42.757042"
       y="202.79411"
       width="468.55298"
       height="180.35457"
       id="rect4-9-2" /><rect
       x="42.757042"
       y="202.79411"
       width="496.35876"
       height="66.193443"
       id="rect4-9-0" /><rect
       x="42.757042"
       y="202.79411"
       width="496.35876"
       height="66.193443"
       id="rect4-9-8" /><rect
       x="42.757042"
       y="202.79411"
       width="496.35876"
       height="66.193443"
       id="rect4-9-8-4" /><marker
       style="overflow:visible"
       id="RoundedArrow-3"
       refX="0"
       refY="0"
       orient="auto-start-reverse"
       inkscape:stockid="Rounded arrow"
       markerWidth="1"
       markerHeight="1"
       viewBox="0 0 1 1"
       inkscape:isstock="true"
       inkscape:collect="always"
       preserveAspectRatio="xMidYMid"><path
         transform="scale(0.7)"
         d="m -0.21114562,-4.1055728 6.42229122,3.21114561 a 1,1 90 0 1 0,1.78885438 L -0.21114562,4.1055728 A 1.236068,1.236068 31.717474 0 1 -2,3 v -6 a 1.236068,1.236068 148.28253 0 1 1.78885438,-1.1055728 z"
         style="fill:context-stroke;fill-rule:evenodd;stroke:none"
         id="path8-4" /></marker></defs><g
     inkscape:label="Layer 1"
     inkscape:groupmode="layer"
     id="layer1"
     transform="translate(-18.685747,-16.097123)"><g
       inkscape:label="Layer 1"
       id="layer1-3"
       transform="matrix(0.20570453,0,0,0.20570453,32.234979,17.448352)"><path
         id="path1049"
         style="fill:none;stroke:url(#linearGradient1082);stroke-width:7.05887;stroke-linecap:round;stroke-linejoin:round;stroke-dasharray:0, 14.1177;stroke-dashoffset:0.705887"
         transform="rotate(45)"
         d="M 79.885492,5.341362 A 28.235506,28.235506 0 0 1 51.649986,33.576868 28.235506,28.235506 0 0 1 23.41448,5.341362 28.235506,28.235506 0 0 1 51.649986,-22.894144 28.235506,28.235506 0 0 1 79.885492,5.341362 Z" /><path
         id="path788"
         style="fill:none;stroke:#00b8ff;stroke-width:7.05887;stroke-linecap:round;stroke-linejoin:round;stroke-dasharray:none;stroke-opacity:1"
         d="M 52.710661,60.264487 C 45.577671,67.397482 35.181106,70.183232 25.437256,67.572379 15.693407,64.96152 8.0825934,57.350706 5.4717369,47.606858 2.8608808,37.863008 5.646632,27.466444 12.779626,20.333452"
         sodipodi:nodetypes="cssc" /><path
         id="path1051"
         style="fill:#00b8ff;stroke:#00b8ff;stroke-width:7.05887;stroke-linecap:round;stroke-linejoin:round;stroke-dashoffset:10.4"
         d="m 36.850896,40.172203 a 4.411798,4.411798 0 0 1 -4.411798,4.411798 4.411798,4.411798 0 0 1 -4.411798,-4.411798 4.411798,4.411798 0 0 1 4.411798,-4.411798 4.411798,4.411798 0 0 1 4.411798,4.411798 z" /><path
         d="m 132.29362,11.846158 q 1.79916,0 2.96332,1.164163 1.16417,1.05833 1.16417,2.857491 v 49.74151 q 0,1.799161 -1.16417,2.963324 -1.16416,1.164163 -2.96332,1.164163 -1.79916,0 -2.96333,-1.164163 -1.05833,-1.164163 -1.05833,-2.963324 V 62.011 q -3.49248,3.915821 -8.46664,6.138314 -4.97415,2.222493 -10.79496,2.222493 -7.51414,0 -13.546626,-3.17499 -5.926648,-3.17499 -9.313304,-9.207471 -3.386656,-6.138314 -3.386656,-14.604954 v -27.51658 q 0,-1.693328 1.164163,-2.857491 1.164163,-1.164163 2.857491,-1.164163 1.799161,0 2.963324,1.164163 1.164163,1.164163 1.164163,2.857491 v 27.51658 q 0,9.419137 5.185817,14.393288 5.291648,4.868318 13.758288,4.868318 5.18582,0 9.31331,-2.010827 4.23332,-2.010827 6.66748,-5.503316 2.43415,-3.598322 2.43415,-7.937475 V 15.867812 q 0,-1.799161 1.05833,-2.857491 1.16417,-1.164163 2.96333,-1.164163 z M 182.8818,11.21116 q 7.51414,0 13.44079,3.17499 6.03248,3.17499 9.41914,9.313304 3.38665,6.032481 3.38665,14.499121 v 27.51658 q 0,1.693328 -1.16416,2.857491 -1.16416,1.164163 -2.85749,1.164163 -1.79916,0 -2.96332,-1.164163 -1.16417,-1.164163 -1.16417,-2.857491 v -27.51658 q 0,-9.419137 -5.29165,-14.287455 -5.18581,-4.974151 -13.65245,-4.974151 -5.18582,0 -9.41914,2.010827 -4.12749,2.010827 -6.56165,5.609149 -2.43416,3.492489 -2.43416,7.831642 v 31.326568 q 0,1.799161 -1.16416,2.963324 -1.05833,1.05833 -2.85749,1.05833 -1.79916,0 -2.96332,-1.05833 -1.16417,-1.164163 -1.16417,-2.963324 v -49.74151 q 0,-1.799161 1.16417,-2.963324 1.16416,-1.164163 2.96332,-1.164163 1.79916,0 2.85749,1.164163 1.16416,1.164163 1.16416,2.963324 v 3.598322 q 3.49249,-3.915821 8.46664,-6.138314 4.97416,-2.222493 10.79497,-2.222493 z m 69.74395,50.376508 q 1.69333,0 2.75166,1.164163 1.05833,1.164163 1.05833,2.963324 0,1.693328 -1.26999,2.857491 -1.27,1.164163 -3.17499,1.164163 h -2.2225 q -5.60915,0 -10.05413,-2.645825 -4.44499,-2.751658 -6.98498,-7.302477 -2.43416,-4.656652 -2.43416,-10.477467 V 21.053629 h -6.87914 q -1.69333,0 -2.75166,-0.952497 -0.9525,-1.05833 -0.9525,-2.539992 0,-1.587495 0.9525,-2.539992 1.05833,-1.05833 2.75166,-1.05833 h 6.87914 V -2.4412973 q 0,-1.7991611 1.05833,-2.9633241 1.16416,-1.164163 2.96333,-1.164163 1.79916,0 2.96332,1.164163 1.16416,1.164163 1.16416,2.9633241 V 13.962818 h 11.95913 q 1.69333,0 2.64583,1.05833 1.05833,0.952497 1.05833,2.539992 0,1.481662 -1.05833,2.539992 -0.9525,0.952497 -2.64583,0.952497 H 238.44413 V 49.31104 q 0,5.397483 3.17499,8.889972 3.17499,3.386656 8.14914,3.386656 z M 294.324,11.316993 q 7.83164,0 13.86412,3.704155 6.03248,3.598322 9.3133,10.054135 3.38666,6.455813 3.38666,14.710787 0,1.693328 -1.05833,2.751658 -1.05833,0.952497 -2.75166,0.952497 h -42.75653 q 0.84666,8.678306 6.77331,14.075789 5.92665,5.397483 14.81662,5.397483 3.80999,0 7.61998,-1.269996 3.91582,-1.375829 6.24415,-3.386656 1.37582,-1.05833 2.85749,-1.05833 1.16416,0 2.32832,0.846664 1.37583,1.269996 1.37583,2.857491 0,1.375829 -1.16416,2.434159 -3.49249,2.963324 -8.88997,4.974151 -5.39749,1.904994 -10.37164,1.904994 -8.46664,0 -15.13412,-3.704155 -6.66748,-3.809988 -10.47746,-10.477467 -3.70416,-6.773312 -3.70416,-15.239952 0,-8.572473 3.49249,-15.239952 3.59832,-6.773312 9.84247,-10.477467 6.34998,-3.809988 14.39329,-3.809988 z m 0,7.302477 q -8.04331,0 -13.33496,4.974151 -5.29165,4.974151 -6.45581,13.123292 H 313.2681 Q 312.42144,28.567772 307.34146,23.593621 302.26147,18.61947 294.324,18.61947 Z m 66.46317,-7.40831 q 4.44498,0 6.98497,1.164163 2.64583,1.164163 2.64583,3.280823 0,0.634998 -0.10583,0.952497 -0.42334,1.481662 -1.37583,2.010827 -0.84667,0.529165 -2.43416,0.529165 -0.9525,0 -3.28083,-0.211666 -0.84666,-0.105833 -2.53999,-0.105833 -7.93747,0 -13.01746,4.23332 -4.97415,4.23332 -4.97415,11.006632 v 31.644067 q 0,1.904994 -1.05833,2.963324 -1.05833,1.05833 -2.96332,1.05833 -1.905,0 -2.96333,-1.05833 -1.05833,-1.05833 -1.05833,-2.963324 V 15.867812 q 0,-1.904994 1.05833,-2.963324 1.05833,-1.05833 2.96333,-1.05833 1.90499,0 2.96332,1.05833 1.05833,1.05833 1.05833,2.963324 v 4.656652 q 3.06916,-4.444986 7.83164,-6.879145 4.76249,-2.434159 10.26581,-2.434159 z m 51.75235,0.105833 q 8.25497,0 14.92245,3.915821 6.77331,3.809988 10.5833,10.5833 3.91582,6.773312 3.91582,15.028286 0,8.254974 -3.80999,15.028286 -3.70415,6.667479 -10.2658,10.5833 -6.45581,3.809988 -14.49912,3.809988 -6.87915,0 -12.59413,-2.857491 -5.71498,-2.963324 -9.41913,-8.043308 v 31.009069 q 0,1.799161 -1.16417,2.963324 -1.16416,1.164163 -2.96332,1.164163 -1.79916,0 -2.96333,-1.164163 -1.05833,-1.164163 -1.05833,-2.963324 V 66.667652 q -0.10583,-0.317499 -0.10583,-0.952497 V 40.8444 q 0,-8.254974 3.80999,-15.028286 3.91582,-6.773312 10.5833,-10.5833 6.77331,-3.915821 15.02829,-3.915821 z m 0,51.540671 q 6.03248,0 10.90079,-2.857491 4.97416,-2.857491 7.72581,-7.831642 2.85749,-5.079984 2.85749,-11.324131 0,-6.244147 -2.85749,-11.218298 -2.75165,-5.079984 -7.72581,-7.937475 -4.86831,-2.963324 -10.90079,-2.963324 -6.03249,0 -10.9008,2.963324 -4.86832,2.857491 -7.72581,7.937475 -2.75166,4.974151 -2.75166,11.218298 0,1.799161 0.10583,2.645825 0.10584,0.211666 0.10584,0.529165 1.05833,8.254974 6.87914,13.546624 5.92665,5.29165 14.28746,5.29165 z m 71.75484,-51.540671 q 8.25498,0 14.92246,3.915821 6.77331,3.809988 10.5833,10.5833 3.91582,6.773312 3.91582,15.028286 v 24.870755 q 0,1.693328 -1.16416,2.857491 -1.16417,1.164163 -2.96333,1.164163 -1.79916,0 -2.96332,-1.05833 -1.16417,-1.164163 -1.16417,-2.963324 v -6.34998 q -3.70415,5.079984 -9.41913,8.043308 -5.71498,2.857491 -12.59413,2.857491 -8.04331,0 -14.60495,-3.809988 -6.45582,-3.915821 -10.26581,-10.5833 -3.70415,-6.773312 -3.70415,-15.028286 0,-8.254974 3.80999,-15.028286 3.91582,-6.773312 10.5833,-10.5833 6.77331,-3.915821 15.02828,-3.915821 z m 0,51.540671 q 6.03249,0 10.9008,-2.857491 4.86832,-2.857491 7.61998,-7.831642 2.85749,-5.079984 2.85749,-11.324131 0,-6.244147 -2.85749,-11.218298 -2.75166,-5.079984 -7.61998,-7.937475 -4.86831,-2.963324 -10.9008,-2.963324 -6.03248,0 -11.00663,2.963324 -4.86832,2.857491 -7.72581,7.937475 -2.75166,4.974151 -2.75166,11.218298 0,6.244147 2.75166,11.324131 2.85749,4.974151 7.72581,7.831642 4.97415,2.857491 11.00663,2.857491 z M 555.73165,11.21116 q 4.44499,0 6.98498,1.164163 2.64583,1.164163 2.64583,3.280823 0,0.634998 -0.10584,0.952497 -0.42333,1.481662 -1.37582,2.010827 -0.84667,0.529165 -2.43416,0.529165 -0.9525,0 -3.28083,-0.211666 -0.84666,-0.105833 -2.53999,-0.105833 -7.93747,0 -13.01746,4.23332 -4.97415,4.23332 -4.97415,11.006632 v 31.644067 q 0,1.904994 -1.05833,2.963324 -1.05833,1.05833 -2.96332,1.05833 -1.905,0 -2.96333,-1.05833 -1.05833,-1.05833 -1.05833,-2.963324 V 15.867812 q 0,-1.904994 1.05833,-2.963324 1.05833,-1.05833 2.96333,-1.05833 1.90499,0 2.96332,1.05833 1.05833,1.05833 1.05833,2.963324 v 4.656652 q 3.06916,-4.444986 7.83164,-6.879145 4.76249,-2.434159 10.2658,-2.434159 z m 47.83653,50.376508 q 1.69333,0 2.75166,1.164163 1.05833,1.164163 1.05833,2.963324 0,1.693328 -1.26999,2.857491 -1.27,1.164163 -3.17499,1.164163 h -2.2225 q -5.60915,0 -10.05413,-2.645825 -4.44499,-2.751658 -6.98498,-7.302477 -2.43416,-4.656652 -2.43416,-10.477467 V 21.053629 h -6.87914 q -1.69333,0 -2.75166,-0.952497 -0.9525,-1.05833 -0.9525,-2.539992 0,-1.587495 0.9525,-2.539992 1.05833,-1.05833 2.75166,-1.05833 h 6.87914 V -2.4412973 q 0,-1.7991611 1.05833,-2.9633241 1.16416,-1.164163 2.96332,-1.164163 1.79917,0 2.96333,1.164163 1.16416,1.164163 1.16416,2.9633241 V 13.962818 h 11.95913 q 1.69333,0 2.64583,1.05833 1.05833,0.952497 1.05833,2.539992 0,1.481662 -1.05833,2.539992 -0.9525,0.952497 -2.64583,0.952497 H 589.38656 V 49.31104 q 0,5.397483 3.17499,8.889972 3.17499,3.386656 8.14914,3.386656 z"
         id="text1"
         style="font-size:105.833px;font-family:Comfortaa;-inkscape-font-specification:'Comfortaa, Normal';fill:#00b8ff;stroke-width:4"
         aria-label="unterpart" /><path
         d="m -36.975035,70.413984 q -8.254974,0 -14.81662,-3.809988 -6.561646,-3.915821 -10.371634,-10.5833 -3.704155,-6.773312 -3.704155,-15.028286 0,-8.46664 3.598322,-15.134119 3.598322,-6.773312 9.948302,-10.5833 6.34998,-3.809988 14.287455,-3.809988 13.229125,0 21.484099,10.159968 0.846664,0.952497 0.846664,2.222493 0,1.693328 -1.799161,2.963324 -0.952497,0.634998 -2.010827,0.634998 -1.587495,0 -3.069157,-1.587495 -3.17499,-3.492489 -6.984978,-5.185817 -3.809988,-1.799161 -8.46664,-1.799161 -5.820815,0 -10.371634,2.857491 -4.550819,2.751658 -7.090811,7.831642 -2.434159,5.079984 -2.434159,11.429964 0,6.244147 2.645825,11.324131 2.645825,4.974151 7.40831,7.831642 4.762485,2.857491 10.900799,2.857491 8.46664,0 13.652457,-4.550819 1.375829,-1.164163 2.857491,-1.164163 1.269996,0 2.328326,0.846664 1.481662,1.269996 1.481662,2.857491 0,1.375829 -1.05833,2.328326 -7.619976,7.090811 -19.261606,7.090811 z"
         id="text1-5"
         style="font-size:105.833px;font-family:Comfortaa;-inkscape-font-specification:'Comfortaa, Normal';fill:#00b8ff;stroke-width:4"
         aria-label="c" /></g><text
       xml:space="preserve"
       style="font-size:105.833px;font-family:Montserrat;-inkscape-font-specification:'Montserrat, Normal';fill:#0ae9a4;fill-opacity:1;stroke-width:4"
       x="89.018257"
       y="43.494072"
       id="text2"><tspan
         sodipodi:role="line"
         id="tspan1"
         style="font-style:normal;font-variant:normal;font-weight:normal;font-stretch:normal;font-size:8.46667px;font-family:Montserrat;-inkscape-font-specification:'Montserrat, Normal';font-variant-ligatures:normal;font-variant-caps:normal;font-variant-numeric:normal;font-variant-east-asian:normal;fill:#0ae9a4;fill-opacity:1;stroke-width:4"
         x="89.018257"
         y="43.494072">guide to not dying</tspan></text><text
       xml:space="preserve"
       transform="scale(0.26458333)"
       id="text3"
       style="font-style:normal;font-variant:normal;font-weight:normal;font-stretch:normal;font-size:42.6667px;font-family:Lato;-inkscape-font-specification:'Lato, Normal';font-variant-ligatures:normal;font-variant-caps:normal;font-variant-numeric:normal;font-variant-east-asian:normal;white-space:pre;shape-inside:url(#rect3);display:inline;fill:#0ae9a4;fill-opacity:1;stroke-width:15.1181" /><text
       xml:space="preserve"
       transform="matrix(0.26458333,0,0,0.26458333,33.41423,-3.6996577)"
       id="text4"
       style="font-style:normal;font-variant:normal;font-weight:normal;font-stretch:normal;font-size:42.6667px;font-family:Lato;-inkscape-font-specification:'Lato, Normal';font-variant-ligatures:normal;font-variant-caps:normal;font-variant-numeric:normal;font-variant-east-asian:normal;white-space:pre;shape-inside:url(#rect4);display:inline;fill:#0ae9a4;fill-opacity:1;stroke-width:15.1181"><tspan
         x="42.757812"
         y="242.47495"
         id="tspan6"><tspan
           style="font-size:21.3333px;fill:#ffffff"
           id="tspan3">look up before flipping, look down before landing</tspan></tspan></text><text
       xml:space="preserve"
       transform="matrix(0.26458333,0,0,0.26458333,34.648021,44.504776)"
       id="text4-2"
       style="font-style:normal;font-variant:normal;font-weight:normal;font-stretch:normal;font-size:42.6667px;font-family:Lato;-inkscape-font-specification:'Lato, Normal';font-variant-ligatures:normal;font-variant-caps:normal;font-variant-numeric:normal;font-variant-east-asian:normal;white-space:pre;shape-inside:url(#rect4-9);display:inline;fill:#0ae9a4;fill-opacity:1;stroke-width:15.1181"><tspan
         x="42.757812"
         y="242.47495"
         id="tspan8"><tspan
           style="font-size:21.3333px;fill:#ffffff"
           id="tspan7">if you realized you flipped wrong, just flip again</tspan></tspan></text><text
       xml:space="preserve"
       transform="matrix(0.26458333,0,0,0.26458333,34.694882,74.115673)"
       id="text4-2-2"
       style="font-style:normal;font-variant:normal;font-weight:normal;font-stretch:normal;font-size:42.6667px;font-family:Lato;-inkscape-font-specification:'Lato, Normal';font-variant-ligatures:normal;font-variant-caps:normal;font-variant-numeric:normal;font-variant-east-asian:normal;white-space:pre;shape-inside:url(#rect4-9-8);display:inline;fill:#f9f9f9;fill-opacity:1;stroke-width:15.1181"><tspan
         x="42.757812"
         y="242.47495"
         id="tspan10"><tspan
           style="font-size:21.3333px"
           id="tspan9">you'll be surprised how far you can jump</tspan></tspan></text><text
       xml:space="preserve"
       transform="matrix(0.26458333,0,0,0.26458333,22.555564,61.488579)"
       id="text4-2-9"
       style="font-style:normal;font-variant:normal;font-weight:normal;font-stretch:normal;font-size:21.3333px;line-height:19.2756px;font-family:Lato;-inkscape-font-specification:'Lato, Normal';font-variant-ligatures:normal;font-variant-caps:normal;font-variant-numeric:normal;font-variant-east-asian:normal;white-space:pre;shape-inside:url(#rect4-9-2);display:inline;fill:#00ffff;fill-opacity:1;stroke-width:15.1181"><tspan
         x="42.757812"
         y="218.93938"
         id="tspan11">fun fact: every flip takes 0.5 sec and gives you a
</tspan><tspan
         x="42.757812"
         y="238.21498"
         id="tspan15">slight upwards boost (please use responsibly)</tspan></text><text
       xml:space="preserve"
       style="font-style:normal;font-variant:normal;font-weight:normal;font-stretch:normal;font-size:11.2889px;font-family:Lato;-inkscape-font-specification:'Lato, Normal';font-variant-ligatures:normal;font-variant-caps:normal;font-variant-numeric:normal;font-variant-east-asian:normal;fill:#00b8ff;fill-opacity:1;stroke-width:4"
       x="18.70146"
       y="61.550552"
       id="text5"><tspan
         sodipodi:role="line"
         id="tspan5"
         style="font-style:normal;font-variant:normal;font-weight:normal;font-stretch:normal;font-size:8.46667px;font-family:Lato;-inkscape-font-specification:'Lato, Normal';font-variant-ligatures:normal;font-variant-caps:normal;font-variant-numeric:normal;font-variant-east-asian:normal;fill:#00b8ff;fill-opacity:1;stroke-width:4"
         x="18.70146"
         y="61.550552">Tip #1</tspan></text><rect
       style="fill:#c0eeff;fill-opacity:1;stroke-width:4"
       id="rect5"
       width="29.421787"
       height="5.0413952"
       x="20.073273"
       y="87.06749" /><rect
       style="fill:#c0eeff;fill-opacity:1;stroke-width:3.21414"
       id="rect5-3"
       width="18.996754"
       height="5.0413952"
       x="67.877266"
       y="65.000351" /><rect
       style="fill:#69d6ff;fill-opacity:1;stroke-width:4"
       id="rect6"
       width="4.9625735"
       height="8.6443157"
       x="30.830179"
       y="74.203186"
       ry="2.4812868" /><path
       style="fill:none;fill-opacity:1;stroke:#9d9d9d;stroke-width:0.5;stroke-dasharray:0.5, 0.5;stroke-dashoffset:0;stroke-opacity:1"
       d="M 66.494335,69.525808 38.341972,74.823369 87.33507,71.331417"
       id="path6"
       sodipodi:nodetypes="ccc" /><rect
       style="fill:#c0eeff;fill-opacity:1;stroke-width:4"
       id="rect5-6"
       width="29.421787"
       height="5.0413952"
       x="99.290314"
       y="-70.279671"
       transform="scale(1,-1)" /><rect
       style="fill:#c0eeff;fill-opacity:1;stroke-width:3.21414"
       id="rect5-3-4"
       width="18.996754"
       height="5.0413952"
       x="147.09431"
       y="-92.346809"
       transform="scale(1,-1)" /><rect
       style="fill:#69d6ff;fill-opacity:1;stroke-width:4"
       id="rect6-3"
       width="4.9625735"
       height="8.6443157"
       x="124.96296"
       y="-82.276947"
       ry="2.4812868"
       transform="scale(1,-1)" /><path
       style="fill:none;fill-opacity:1;stroke:#9d9d9d;stroke-width:0.5;stroke-dasharray:0.5, 0.5;stroke-dashoffset:0;stroke-opacity:1"
       d="m 145.71138,87.82135 -13.97713,-11.087749 34.81786,9.28214"
       id="path6-3"
       sodipodi:nodetypes="ccc" /><path
       style="fill:none;fill-opacity:1;stroke:#fc992c;stroke-width:0.499999;stroke-dasharray:none;stroke-dashoffset:0;stroke-opacity:1;marker-end:url(#RoundedArrow)"
       d="m 132.60701,81.24723 h 13.2579"
       id="path7"
       sodipodi:nodetypes="cc" /><path
       style="fill:none;fill-opacity:1;stroke:#57ced1;stroke-width:0.5;stroke-dasharray:0.5, 3;stroke-dashoffset:0;stroke-opacity:1"
       d="M 93.141822,65.163911 V 91.639233"
       id="path9" /><text
       xml:space="preserve"
       transform="matrix(0.26458333,0,0,0.26458333,34.292578,42.115806)"
       id="text4-7"
       style="font-style:normal;font-variant:normal;font-weight:normal;font-stretch:normal;font-size:42.6667px;font-family:Lato;-inkscape-font-specification:'Lato, Normal';font-variant-ligatures:normal;font-variant-caps:normal;font-variant-numeric:normal;font-variant-east-asian:normal;white-space:pre;shape-inside:url(#rect4-8);display:inline;fill:#0ae9a4;fill-opacity:1;stroke-width:15.1181" /><text
       xml:space="preserve"
       style="font-style:normal;font-variant:normal;font-weight:normal;font-stretch:normal;font-size:11.2889px;font-family:Lato;-inkscape-font-specification:'Lato, Normal';font-variant-ligatures:normal;font-variant-caps:normal;font-variant-numeric:normal;font-variant-east-asian:normal;fill:#00b8ff;fill-opacity:1;stroke-width:4"
       x="19.579807"
       y="109.77579"
       id="text5-4"><tspan
         sodipodi:role="line"
         id="tspan5-3"
         style="font-style:normal;font-variant:normal;font-weight:normal;font-stretch:normal;font-size:8.46667px;font-family:Lato;-inkscape-font-specification:'Lato, Normal';font-variant-ligatures:normal;font-variant-caps:normal;font-variant-numeric:normal;font-variant-east-asian:normal;fill:#00b8ff;fill-opacity:1;stroke-width:4"
         x="19.579807"
         y="109.77579">Tip #2</tspan></text><text
       xml:space="preserve"
       style="font-style:normal;font-variant:normal;font-weight:normal;font-stretch:normal;font-size:11.2889px;font-family:Lato;-inkscape-font-specification:'Lato, Normal';font-variant-ligatures:normal;font-variant-caps:normal;font-variant-numeric:normal;font-variant-east-asian:normal;fill:#00b8ff;fill-opacity:1;stroke-width:4"
       x="20.211641"
       y="139.8391"
       id="text5-4-4"><tspan
         sodipodi:role="line"
         id="tspan5-3-6"
         style="font-style:normal;font-variant:normal;font-weight:normal;font-stretch:normal;font-size:8.46667px;font-family:Lato;-inkscape-font-specification:'Lato, Normal';font-variant-ligatures:normal;font-variant-caps:normal;font-variant-numeric:normal;font-variant-east-asian:normal;fill:#00b8ff;fill-opacity:1;stroke-width:4"
         x="20.211641"
         y="139.8391">Tip #3</tspan></text><text
       xml:space="preserve"
       transform="matrix(0.27741152,0,0,0.27741152,34.74814,90.933034)"
       id="text4-2-2-6"
       style="font-style:normal;font-variant:normal;font-weight:normal;font-stretch:normal;font-size:21.3333px;line-height:20.735px;font-family:Lato;-inkscape-font-specification:'Lato, Normal';font-variant-ligatures:normal;font-variant-caps:normal;font-variant-numeric:normal;font-variant-east-asian:normal;white-space:pre;shape-inside:url(#rect4-9-8-4);display:inline;fill:#f9f9f9;fill-opacity:1;stroke-width:15.1181"><tspan
         x="42.757812"
         y="219.66908"
         id="tspan16">moving platforms don't wait for you, estimate 
</tspan><tspan
         x="42.757812"
         y="240.40408"
         id="tspan17">and adjust while hopping on and off</tspan></text><text
       xml:space="preserve"
       style="font-style:normal;font-variant:normal;font-weight:normal;font-stretch:normal;font-size:11.2889px;font-family:Lato;-inkscape-font-specification:'Lato, Normal';font-variant-ligatures:normal;font-variant-caps:normal;font-variant-numeric:normal;font-variant-east-asian:normal;fill:#00b8ff;fill-opacity:1;stroke-width:4"
       x="20.446884"
       y="155.7598"
       id="text5-4-4-9"><tspan
         sodipodi:role="line"
         id="tspan5-3-6-0"
         style="font-style:normal;font-variant:normal;font-weight:normal;font-stretch:normal;font-size:8.46667px;font-family:Lato;-inkscape-font-specification:'Lato, Normal';font-variant-ligatures:normal;font-variant-caps:normal;font-variant-numeric:normal;font-variant-east-asian:normal;fill:#00b8ff;fill-opacity:1;stroke-width:4"
         x="20.446884"
         y="155.7598">Tip #4</tspan></text><path
       d="m 22.953541,122.29286 q -0.297446,-0.51378 -0.446169,-1.05458 -0.148722,-0.5408 -0.148722,-1.10866 0,-1.8117 1.257383,-3.0826 1.257378,-1.2709 3.06909,-1.2709 h 0.09464 l -0.865296,-0.86529 0.757133,-0.75714 2.163236,2.16323 -2.163236,2.16325 -0.757133,-0.75714 0.865296,-0.86529 h -0.09464 q -1.352025,0 -2.298441,0.95316 -0.946413,0.95318 -0.946413,2.31872 0,0.35152 0.08113,0.68954 0.08113,0.338 0.243363,0.66248 z m 3.7451,3.75862 -2.163235,-2.16323 2.163235,-2.16323 0.757134,0.75712 -0.865296,0.86531 h 0.09464 q 1.352022,0 2.298438,-0.95318 0.946416,-0.95318 0.946416,-2.31872 0,-0.35152 -0.08113,-0.68954 -0.08113,-0.338 -0.243363,-0.66248 l 0.811213,-0.81123 q 0.297444,0.51379 0.446167,1.05459 0.148722,0.5408 0.148722,1.10866 0,1.81171 -1.257383,3.0826 -1.25738,1.2709 -3.06909,1.2709 h -0.09464 l 0.865296,0.86531 z"
       id="path1"
       style="fill:#00ffff;stroke-width:0.0135202" /><rect
       style="fill:none;fill-opacity:1;stroke:#809595;stroke-width:2;stroke-dasharray:2, 2;stroke-dashoffset:0;stroke-opacity:1"
       id="rect13-1"
       width="17.819283"
       height="16.431078"
       x="85.612885"
       y="164.31018"
       ry="0" /><path
       style="fill:none;fill-opacity:1;stroke:#fc992c;stroke-width:1;stroke-dasharray:none;stroke-dashoffset:0;stroke-opacity:1;marker-end:url(#RoundedArrow-3)"
       d="m 100.35833,190.53596 -0.12342,-11.47081"
       id="path7-3"
       sodipodi:nodetypes="cc" /><rect
       style="fill:#9ff5f5;fill-opacity:1;stroke:#9ff5f5;stroke-width:2;stroke-dasharray:none;stroke-dashoffset:0;stroke-opacity:1"
       id="rect13"
       width="17.819283"
       height="16.431078"
       x="76.170242"
       y="164.30792"
       ry="0" /><text
       xml:space="preserve"
       style="font-style:normal;font-variant:normal;font-weight:normal;font-stretch:normal;font-size:5.64444px;line-height:8.99999px;font-family:Lato;-inkscape-font-specification:'Lato, Normal';font-variant-ligatures:normal;font-variant-caps:normal;font-variant-numeric:normal;font-variant-east-asian:normal;fill:none;fill-opacity:1;stroke:#809595;stroke-width:1;stroke-dasharray:none;stroke-dashoffset:0;stroke-opacity:1"
       x="38.798428"
       y="203.20119"
       id="text14"><tspan
         sodipodi:role="line"
         id="tspan14"
         style="font-style:normal;font-variant:normal;font-weight:normal;font-stretch:normal;font-size:8.46667px;line-height:8.99999px;font-family:Comfortaa;-inkscape-font-specification:'Comfortaa, Normal';font-variant-ligatures:normal;font-variant-caps:normal;font-variant-numeric:normal;font-variant-east-asian:normal;fill:#16e8ea;fill-opacity:1;stroke:none;stroke-width:1"
         x="38.798428"
         y="203.20119">more will be added soon</tspan></text></g></svg>
