# File produced by Open Asset Import Library (http://www.assimp.sf.net)
# (assimp v5.0.1588609223)

mtllib result.mtl

# 36 vertex positions
v  45 0 -41
v  53 0 -41
v  53 0 -49
v  45 0 -49
v  45 -2 -38
v  45 0 -38
v  45 0 -40
v  45 -2 -40
v  53 0 -40
v  53 -2 -40
v  53 0 -38
v  53 -2 -38
v  45 0 -28
v  45 2 -28
v  45 2 -30
v  45 0 -30
v  53 2 -30
v  53 0 -30
v  53 2 -28
v  53 0 -28
v  45 2 -18
v  45 4 -18
v  45 4 -20
v  45 2 -20
v  53 4 -20
v  53 2 -20
v  53 4 -18
v  53 2 -18
v  45 4 -8
v  45 6.000001 -8
v  45 6.000001 -10
v  45 4 -10
v  53 6 -10
v  53 4 -10
v  53 6 -8
v  53 4 -8

# 18 UV coordinates
vt 0 0 0
vt 1 0 0
vt 1 1 0
vt 0 1 0
vt 0.375 0 0
vt 0.625 0 0
vt 0.625 0.25 0
vt 0.375 0.25 0
vt 0.625 0.5 0
vt 0.375 0.5 0
vt 0.625 0.75 0
vt 0.375 0.75 0
vt 0.625 1 0
vt 0.375 1 0
vt 0.125 0.5 0
vt 0.125 0.75 0
vt 0.875 0.5 0
vt 0.875 0.75 0

# 6 vertex normals
vn 1.509958e-07 1 0
vn -1 1.509958e-07 0
vn -0 0 -1
vn 1 -1.509958e-07 0
vn 0 0 1
vn -1.509958e-07 -1 0

# Mesh 'Plane.005' with 50 faces
g Plane.005
usemtl $Material_0
f  1/1/1 2/2/1 3/3/1
f  1/1/1 3/3/1 4/4/1
f  5/5/2 6/6/2 7/7/2
f  5/5/2 7/7/2 8/8/2
f  8/8/3 7/7/3 9/9/3
f  8/8/3 9/9/3 10/10/3
f  10/10/4 9/9/4 11/11/4
f  10/10/4 11/11/4 12/12/4
f  12/12/5 11/11/5 6/13/5
f  12/12/5 6/13/5 5/14/5
f  8/15/6 10/10/6 12/12/6
f  8/15/6 12/12/6 5/16/6
f  9/9/1 7/17/1 6/18/1
f  9/9/1 6/18/1 11/11/1
f  13/5/2 14/6/2 15/7/2
f  13/5/2 15/7/2 16/8/2
f  16/8/3 15/7/3 17/9/3
f  16/8/3 17/9/3 18/10/3
f  18/10/4 17/9/4 19/11/4
f  18/10/4 19/11/4 20/12/4
f  20/12/5 19/11/5 14/13/5
f  20/12/5 14/13/5 13/14/5
f  16/15/6 18/10/6 20/12/6
f  16/15/6 20/12/6 13/16/6
f  17/9/1 15/17/1 14/18/1
f  17/9/1 14/18/1 19/11/1
f  21/5/2 22/6/2 23/7/2
f  21/5/2 23/7/2 24/8/2
f  24/8/3 23/7/3 25/9/3
f  24/8/3 25/9/3 26/10/3
f  26/10/4 25/9/4 27/11/4
f  26/10/4 27/11/4 28/12/4
f  28/12/5 27/11/5 22/13/5
f  28/12/5 22/13/5 21/14/5
f  24/15/6 26/10/6 28/12/6
f  24/15/6 28/12/6 21/16/6
f  25/9/1 23/17/1 22/18/1
f  25/9/1 22/18/1 27/11/1
f  29/5/2 30/6/2 31/7/2
f  29/5/2 31/7/2 32/8/2
f  32/8/3 31/7/3 33/9/3
f  32/8/3 33/9/3 34/10/3
f  34/10/4 33/9/4 35/11/4
f  34/10/4 35/11/4 36/12/4
f  36/12/5 35/11/5 30/13/5
f  36/12/5 30/13/5 29/14/5
f  32/15/6 34/10/6 36/12/6
f  32/15/6 36/12/6 29/16/6
f  33/9/1 31/17/1 30/18/1
f  33/9/1 30/18/1 35/11/1

